<svg xmlns="http://www.w3.org/2000/svg" width="1500" height="900" viewBox="0 0 1500 900">
<defs><linearGradient id="sky" x2="0" y2="1"><stop stop-color="#305c81"/><stop offset="1" stop-color="#f0bb98"/></linearGradient><linearGradient id="water" x2="0" y2="1"><stop stop-color="#da9c76"/><stop offset="1" stop-color="#254d61"/></linearGradient><pattern id="ripples" width="91" height="43" patternUnits="userSpaceOnUse"><path d="M4 8h45m-19 16h57M0 38h23" stroke="#fee4bf" stroke-opacity=".23" stroke-width="3"/></pattern><pattern id="brick" width="38" height="22" patternUnits="userSpaceOnUse"><rect width="38" height="22" fill="#bd7656"/><path d="M0 0h38M0 22h38M19 0v11M0 11h38M0 11v11M38 11v11" stroke="#f0c693" stroke-width="1"/></pattern></defs>
<rect width="1500" height="900" fill="url(#sky)"/><circle cx="1090" cy="226" r="95" fill="#ffe2a4"/><path d="M0 399L140 202l120 132 164-244 220 250 172-123 158 181 150-73 168-213 208 232v236H0Z" fill="#516d85"/><path d="M155 219l-49 69 54-27 69 61-89-120Zm270-129-58 88 62-23 72 48Zm869 22-42 70 47-17 65 26Z" fill="#d0d4cb"/><path d="M0 450l202-72 220 89 169-73 234 114 247-74 228 40 200-89v320H0Z" fill="#294e57"/>
<rect y="547" width="1500" height="353" fill="url(#water)"/><rect y="547" width="1500" height="353" fill="url(#ripples)"/><path d="M790 558h190l55 155-175 61-165-110Z" fill="#e8b386" opacity=".22"/><path d="M0 578l180-66 164 27 161-74 150 109-127 62-528 78Z" fill="#253d38"/>
<path d="M300 454l170-115 174 118v133H300Z" fill="url(#brick)"/><path d="M271 461l198-153 200 153-29 22-171-133-174 133Z" fill="#343e48"/><path d="M318 471h38v63h-38zm71-47h38v64h-38zm132 0h38v64h-38zm75 47h30v63h-30z" fill="#ffe0a2" stroke="#433c34" stroke-width="9"/><path d="M456 494h43v96h-43" fill="#35474a"/><path d="M574 345v-77h36v105" fill="#97624d"/>
<path d="M0 741Q236 625 423 685T791 810l146 90H0Z" fill="#49613f"/><path d="M0 820q210-151 428-92t379 172H658Q331 679 0 876Z" fill="#b49463"/>
<g fill="#173d38"><path d="M77 282l-65 157h32l-57 128h75l-85 105h180l-83-105h72l-53-128h33Z"/><path d="M208 355l-59 150h29l-44 128h65l-65 84h148l-60-84h59l-43-128h28Z"/><path d="M1398 294l-79 170h43l-80 140h87l-83 127h231l-94-127h84l-70-140h40Z"/><path d="M1260 395l-51 111h27l-47 122h69l-67 87h143l-55-87h49l-43-122h27Z"/></g>
<g fill="#d0aa6e"><circle cx="70" cy="810" r="6"/><circle cx="170" cy="772" r="5"/><circle cx="325" cy="845" r="8"/><circle cx="532" cy="806" r="7"/><circle cx="689" cy="868" r="5"/></g><path d="M947 656l93 3-21 26h-53Z" fill="#592f33"/><path d="M992 578v80h-47Z" fill="#f9e5bd"/><path d="M992 583v69h47Z" fill="#d78163"/>
<g stroke="#eecc9b" stroke-width="4" opacity=".6"><path d="M782 778h165m44-46h81m-126 103h183m-561-145h67m627 96h115m-409 81h125"/></g></svg>
